<!--?xml version="1.0" standalone="no"?-->
              <svg id="sw-js-blob-svg" viewBox="0 0 100 100" xmlns="http://www.w3.org/2000/svg" version="1.1">
                    <defs> 
                        <linearGradient id="sw-gradient" x1="0" x2="1" y1="1" y2="0">
                            <stop id="stop1" stop-color="rgba(47, 40, 161, 1)" offset="0%"></stop>
                            <stop id="stop2" stop-color="rgba(255, 255, 255, 1)" offset="100%"></stop>
                        </linearGradient>
                    </defs>
                <path fill="rgba(47, 40, 161, 1)" d="M17,-24.6C21.1,-20.4,23,-14.2,25.2,-8.1C27.3,-1.9,29.7,4.3,27.3,7.9C24.8,11.6,17.4,12.7,12.1,18.7C6.7,24.6,3.4,35.4,-2.4,38.8C-8.2,42.1,-16.4,38,-19.8,31.4C-23.2,24.8,-21.7,15.7,-24.3,7.9C-26.9,0,-33.6,-6.5,-34.7,-13.7C-35.7,-20.9,-31.1,-28.6,-24.3,-32C-17.6,-35.4,-8.8,-34.5,-1.2,-32.9C6.4,-31.2,12.8,-28.9,17,-24.6Z" width="100%" height="100%" transform="translate(50 50)" stroke-width="0" style="transition: all 0.3s ease 0s;" stroke="rgba(87.727, 49.046, 30.739, 1)"></path>
              </svg>