<!--?xml version="1.0" standalone="no"?-->
              <svg id="sw-js-blob-svg" viewBox="0 0 100 100" xmlns="http://www.w3.org/2000/svg" version="1.1">
                    <defs> 
                        <linearGradient id="sw-gradient" x1="0" x2="1" y1="1" y2="0">
                            <stop id="stop1" stop-color="rgba(47, 40, 161, 1)" offset="0%"></stop>
                            <stop id="stop2" stop-color="rgba(255, 255, 255, 1)" offset="100%"></stop>
                        </linearGradient>
                    </defs>
                <path fill="rgba(47, 40, 161, 1)" d="M20.9,-34.1C27.9,-32.1,35,-28.2,39.3,-22.2C43.7,-16.2,45.3,-8.1,44.3,-0.5C43.4,7,39.9,14,35.4,19.8C30.9,25.5,25.4,30,19.3,33.7C13.3,37.5,6.6,40.5,-0.3,41C-7.3,41.6,-14.5,39.6,-20.8,36C-27,32.3,-32.3,27,-36.3,20.7C-40.3,14.4,-43,7.2,-43.6,-0.3C-44.2,-7.9,-42.5,-15.8,-39,-22.9C-35.6,-30.1,-30.2,-36.5,-23.4,-38.6C-16.5,-40.7,-8.3,-38.4,-0.7,-37.3C6.9,-36.1,13.9,-36.1,20.9,-34.1Z" width="100%" height="100%" transform="translate(50 50)" stroke-width="0" style="transition: all 0.3s ease 0s;" stroke="rgba(87.727, 49.046, 30.739, 1)"></path>
              </svg>